<?xml version="1.0" encoding="utf-8"?>
<!-- Generator: Adobe Illustrator 16.0.0, SVG Export Plug-In . SVG Version: 6.00 Build 0)  -->
<!DOCTYPE svg PUBLIC "-//W3C//DTD SVG 1.1//EN" "http://www.w3.org/Graphics/SVG/1.1/DTD/svg11.dtd">
<svg version="1.1" xmlns="http://www.w3.org/2000/svg" xmlns:xlink="http://www.w3.org/1999/xlink" x="0px" y="0px" width="512px"
	 height="512px" viewBox="0 0 512 512" enable-background="new 0 0 512 512" xml:space="preserve">
<g id="sub">
</g>
<g id="logo">
</g>
<g id="shadows">
</g>
<g id="Layer_4">
	<path fill="#003852" d="M512,480c0,17.673-14.327,32-32,32H32c-17.673,0-32-14.327-32-32V32C0,14.327,14.327,0,32,0h448
		c17.673,0,32,14.327,32,32V480z M449.478,211.348L422.09,167.36l32.284-88.681L439.914,56h-222.31l-30.93,22.68L57.626,433.28
		L72.086,456h265.676l30.945-22.701L449.478,211.348z M333.349,411H198.505l64.883-178h134.843L333.349,411z M402.071,99l-32.537,90
		H235.339l32.566-90H402.071z"/>
</g>
</svg>
